<?xml version="1.0" encoding="utf-8"?><!-- Uploaded to: SVG Repo, www.svgrepo.com, Generator: SVG Repo Mixer Tools -->
<svg width="800px" height="800px" viewBox="0 0 960 960" fill="none" xmlns="http://www.w3.org/2000/svg">
<path d="M457.833 409.589C428.769 401.499 435.461 454.433 433.863 472.11C438.257 485.793 428.969 552.31 452.24 541.624C487.985 525.132 518.132 501.177 549.263 476.985C556.149 471.633 555.328 460.859 547.876 456.329C518.431 438.428 491.544 417.974 457.833 409.589ZM373.937 272.959C539.131 269.464 772.339 219.826 759.156 461.624C777.233 677.054 622.227 665.868 461.628 665.169C343.675 666.967 225.323 668.665 235.51 515.356C231.316 401.698 225.623 276.954 373.937 272.959Z" fill="white"/>
<path d="M365.646 84.396C527.744 84.9952 748.867 45.4447 842.351 215.232C876.208 280.251 869.616 355.757 873.112 426.768C875.209 489.989 876.608 553.21 872.513 616.231C844.048 851.038 723.399 881.899 511.065 879.502C422.575 881.699 333.586 871.113 248.193 848.041C152.912 828.766 94.8849 738.478 90.3905 645.395C83.599 494.284 66.9198 297.23 146.52 163.497C196.258 94.2836 288.343 92.4859 365.646 84.396ZM759.254 461.624C772.338 219.827 539.229 269.465 373.936 272.96C225.522 276.955 231.314 401.699 235.509 515.357C225.422 668.766 343.674 666.968 461.626 665.17C622.226 665.969 777.332 677.055 759.254 461.624Z" fill="#000000"/>
<path d="M433.859 472.113C435.457 454.435 428.766 401.402 457.829 409.591C491.542 417.977 518.359 438.432 547.844 456.334C555.304 460.863 556.132 471.647 549.241 477.002C518.117 501.189 487.975 525.138 452.236 541.626C428.966 552.313 438.254 485.796 433.859 472.113Z" fill="#000000"/>
</svg>